<svg xmlns="http://www.w3.org/2000/svg" viewBox="0 0 128 40" role="img" aria-labelledby="title desc">
  <title id="title">Logo CodingLearn</title>
  <desc id="desc">Monogramme stylisé représentant la lettre C ouverte entourant une étincelle dorée</desc>
  <defs>
    <linearGradient id="spark" x1="0%" x2="100%" y1="0%" y2="100%">
      <stop offset="0%" stop-color="#f6c143" />
      <stop offset="100%" stop-color="#f8d46e" />
    </linearGradient>
  </defs>
  <g fill="none" fill-rule="evenodd" stroke-linecap="round" stroke-linejoin="round">
    <path
      d="M24.5 31.2C16 31.2 9.2 24.3 9.2 15.8S16 0.4 24.5 0.4c4.7 0 9.1 1.8 12.5 5.1"
      stroke="#0d3b66"
      stroke-width="4.2"
    />
    <path
      d="M22.3 11.2c-1.6 1.5-2.5 3.6-2.5 5.9 0 2.2 0.9 4.3 2.5 5.9 1.6 1.6 3.7 2.5 5.9 2.5 2.2 0 4.3-0.9 5.9-2.5"
      stroke="#0d3b66"
      stroke-width="2.8"
      opacity="0.7"
    />
    <circle cx="38.5" cy="9.8" r="4.2" fill="url(#spark)" />
    <path
      d="M44.4 9.8h8.1"
      stroke="#f6c143"
      stroke-width="2"
    />
  </g>
  <g transform="translate(56 8)" fill="#0f1f2f">
    <path d="M6.2 23.4c-3.6 0-6.2-1.9-6.2-5.9V5.7h4.5v10.9c0 1.8 1 2.7 2.5 2.7s2.5-.9 2.5-2.7V5.7H14v11.8c0 4-2.6 5.9-7.8 5.9Z" />
    <path d="M18.3 23V5.7h4.5V9c.9-2.2 2.7-3.6 5.3-3.6v4.6c-3.4 0-5.3 1.5-5.3 5V23h-4.5Z" />
    <path d="M32.2 14.3c0-5.5 4-9.4 9.2-9.4 4.9 0 8.4 3.4 8.7 7.7h-4.4c-.3-2.1-1.9-3.6-4.3-3.6-2.8 0-4.6 2.2-4.6 5.3s1.8 5.3 4.6 5.3c2.4 0 4-1.5 4.3-3.6h4.4c-.3 4.3-3.9 7.7-8.7 7.7-5.2 0-9.2-3.9-9.2-9.4Z" />
    <path d="M53.8 23V5.7h4.5v3c1-2.1 2.7-3.4 5.3-3.4 2.5 0 4.4 1.1 5.3 3.1 1.1-2 3.2-3.1 5.6-3.1 3.8 0 6.2 2.5 6.2 6.7V23h-4.5V12.7c0-1.9-1-3.1-2.8-3.1-1.9 0-3.1 1.4-3.1 3.5V23h-4.5V12.7c0-1.9-1-3.1-2.8-3.1-1.8 0-3.1 1.4-3.1 3.5V23h-4.5Z" />
    <path d="M88.3 23V5.7h4.5V9c.9-2.2 2.7-3.6 5.3-3.6v4.6c-3.4 0-5.3 1.5-5.3 5V23h-4.5Z" />
  </g>
</svg>
